<svg xmlns="http://www.w3.org/2000/svg" width="22.059" height="25.447" viewBox="0 0 22.059 25.447">
  <g id="bath" transform="translate(-156.317 -961.731)">
    <path id="Path_34" data-name="Path 34" d="M2191.578,1100.138v-19.955s-7.543-10.978-13.019,1.417" transform="translate(-2014.202 -112.96)" fill="none" stroke="#000" stroke-width="2"/>
    <g id="Path_35" data-name="Path 35" transform="translate(157.003 967.322)" fill="none">
      <path d="M7.574,0a7.574,7.574,0,0,1,7.574,7.574C15.2,7.482-.03,7.749,0,7.574A7.574,7.574,0,0,1,7.574,0Z" stroke="none"/>
      <path d="M 7.574436664581299 2.000002384185791 C 5.182441711425781 2.000002384185791 3.137466430664063 3.514476299285889 2.347997665405273 5.634847640991211 C 2.396025657653809 5.634883880615234 2.445064544677734 5.634902000427246 2.495326995849609 5.634902000427246 C 4.350186347961426 5.634902000427246 7.002246856689453 5.61049222946167 9.342106819152832 5.588962554931641 C 10.58855247497559 5.577495574951172 11.79048156738281 5.566433906555176 12.77242660522461 5.559999465942383 C 11.96318054199219 3.478823184967041 9.938247680664063 2.000002384185791 7.574436664581299 2.000002384185791 M 7.574436664581299 2.384185791015625e-06 C 11.75743103027344 2.384185791015625e-06 15.14847278594971 3.390564918518066 15.14888668060303 7.573472499847412 C 15.14056873321533 7.559736251831055 14.77915477752686 7.554281711578369 14.17386245727539 7.554281711578369 C 11.84553718566895 7.554281711578369 5.900730133056641 7.634907245635986 2.495323181152344 7.634907245635986 C 0.9980783462524414 7.634907245635986 -0.007683753967285156 7.619331836700439 -1.33514404296875e-05 7.574462413787842 C -1.33514404296875e-05 3.391202449798584 3.391177177429199 2.384185791015625e-06 7.574436664581299 2.384185791015625e-06 Z M 15.14888668060303 7.573472499847412 C 15.14908313751221 7.573797225952148 15.14908504486084 7.5741286277771 15.14888668060303 7.574462413787842 C 15.14888668060303 7.574206829071045 15.14888668060303 7.573728084564209 15.14888668060303 7.573472499847412 Z" stroke="none" fill="#000"/>
    </g>
    <g id="Group_9" data-name="Group 9" transform="translate(155.707 976.986)">
      <circle id="Ellipse_1" data-name="Ellipse 1" cx="1.5" cy="1.5" r="1.5" transform="translate(1.61 -0.247)"/>
      <circle id="Ellipse_6" data-name="Ellipse 6" cx="1.5" cy="1.5" r="1.5" transform="translate(0.61 4.753)"/>
      <circle id="Ellipse_2" data-name="Ellipse 2" cx="1.5" cy="1.5" r="1.5" transform="translate(6.61 -0.247)"/>
      <circle id="Ellipse_5" data-name="Ellipse 5" cx="1.5" cy="1.5" r="1.5" transform="translate(6.61 4.753)"/>
      <circle id="Ellipse_3" data-name="Ellipse 3" cx="1.5" cy="1.5" r="1.5" transform="translate(11.61 -0.247)"/>
      <circle id="Ellipse_4" data-name="Ellipse 4" cx="1.5" cy="1.5" r="1.5" transform="translate(12.61 4.753)"/>
    </g>
  </g>
</svg>
