<svg xmlns="http://www.w3.org/2000/svg" width="28.036" height="20.808" viewBox="0 0 28.036 20.808">
  <g id="bed" transform="translate(-109.482 -962.646)">
    <path id="Path_33" data-name="Path 33" d="M1993.482,1108.594v-8.711a2.486,2.486,0,0,1,2.324-1.842h21.622s2.09-.015,2.09,1.842V1109" transform="translate(-1883 -125.543)" fill="none" stroke="#000" stroke-width="2"/>
    <line id="Line_1" data-name="Line 1" x2="26.14" transform="translate(110.492 980.757)" fill="none" stroke="#000" stroke-width="2"/>
    <path id="Rectangle_23" data-name="Rectangle 23" d="M2,0H19a2,2,0,0,1,2,2V9a0,0,0,0,1,0,0H0A0,0,0,0,1,0,9V2A2,2,0,0,1,2,0Z" transform="translate(113.178 963.646)" fill="none" stroke="#000" stroke-width="2"/>
    <path id="Rectangle_24" data-name="Rectangle 24" d="M2,0H8a2,2,0,0,1,2,2V4a0,0,0,0,1,0,0H0A0,0,0,0,1,0,4V2A2,2,0,0,1,2,0Z" transform="translate(113.178 968.646)" fill="none" stroke="#000" stroke-width="2"/>
    <path id="Rectangle_25" data-name="Rectangle 25" d="M2,0H8a2,2,0,0,1,2,2V4a0,0,0,0,1,0,0H0A0,0,0,0,1,0,4V2A2,2,0,0,1,2,0Z" transform="translate(124.178 968.646)" fill="none" stroke="#000" stroke-width="2"/>
  </g>
</svg>
