<svg xmlns="http://www.w3.org/2000/svg" width="18.631" height="23.19" viewBox="0 0 18.631 23.19">
  <g id="scale" transform="translate(-50.333)">
    <g id="Group_1128" data-name="Group 1128" transform="translate(50.333)">
      <g id="Group_1127" data-name="Group 1127">
        <path id="Path_1647" data-name="Path 1647" d="M58.3.013H51.058a.725.725,0,0,0-.725.725V22.477a.725.725,0,0,0,.725.725H58.3a.725.725,0,0,0,.725-.725V.738A.725.725,0,0,0,58.3.013Zm-.725,21.739h-5.8V19.578h3.623V18.129H51.782V15.955h2.174V14.506H51.782V12.332h3.623V10.883H51.782V8.709h2.174V7.259H51.782V5.085h3.623V3.636H51.782V1.462h5.8Z" transform="translate(-50.333 -0.012)"/>
        <path id="Path_1648" data-name="Path 1648" d="M286.227,18.334l-2.391,2.384V2.472l2.384,2.384,1.022-1.022L283.618.211a.725.725,0,0,0-1.022,0l-3.623,3.623,1.022,1.022,2.391-2.384V20.718L280,18.334l-1.022,1.022,3.623,3.623a.725.725,0,0,0,1.022,0l3.623-3.623Z" transform="translate(-268.618 0)"/>
      </g>
    </g>
  </g>
</svg>
